# AST/ASF file generated using VICON BodyLanguage
# -----------------------------------------------
:version 1.10
:name VICON
:units
  mass 1.0
  length 0.45
  angle deg
:documentation
   .ast/.asf automatically generated from VICON data using
   VICON BodyBuilder and BodyLanguage model FoxedUp or BRILLIANT.MOD
:root
   order TX TY TZ RX RY RZ
   axis XYZ
   position 0 0 0  
   orientation 0 0 0 
:bonedata
  begin
     id 1 
     name lhipjoint
     direction 0.661853 -0.702389 0.261917 
     length 2.64193 
     axis 0 0 0  XYZ
  end
  begin
     id 2 
     name lfemur
     direction 0.34202 -0.939693 0  
     length 7.01722  
     axis 0 0 20  XYZ
    dof rx ry rz
    limits (-160.0 20.0)
           (-70.0 70.0)
           (-60.0 70.0)
  end
  begin
     id 3 
     name ltibia
     direction 0.34202 -0.939693 0   
     length 8.25008   
     axis 0 0 20   XYZ
    dof rx
    limits (-10.0 170.0)
  end
  begin
     id 4 
     name lfoot
     direction 0.0709916 -0.195048 0.978221   
     length 2.31941   
     axis -90 7.62852e-016 20   XYZ
    dof rx rz
    limits (-45.0 90.0)
           (-70.0 20.0)
  end
  begin
     id 5 
     name ltoes
     direction 1.53586e-011 -4.22017e-011 1   
     length 1.16486   
     axis -90 7.62852e-016 20   XYZ
    dof rx
    limits (-90.0 20.0)
  end
  begin
     id 6 
     name rhipjoint
     direction -0.638185 -0.721362 0.268992   
     length 2.57244  
     axis 0 0 0  XYZ 
  end
  begin
     id 7 
     name rfemur
     direction -0.34202 -0.939693 0   
     length 7.07017   
     axis 0 0 -20   XYZ
    dof rx ry rz
    limits (-160.0 20.0)
           (-70.0 70.0)
           (-70.0 60.0)
  end
  begin
     id 8 
     name rtibia
     direction -0.34202 -0.939693 0   
     length 8.20386   
     axis 0 0 -20   XYZ
    dof rx
    limits (-10.0 170.0)
 end
 begin
     id 9 
     name rfoot
     direction -0.0822429 -0.225961 0.970658   
     length 2.32215  
     axis -90 -7.62852e-016 -20   XYZ
    dof rx rz
    limits (-45.0 90.0)
           (-20.0 70.0)
  end
  begin
     id 10 
     name rtoes
     direction -1.53597e-011 -4.21689e-011 1   
     length 1.16333   
     axis -90 -7.62852e-016 -20   XYZ
    dof rx
    limits (-90.0 20.0)
  end
  begin
     id 11 
     name lowerback
     direction -0.0131557 0.998589 -0.0514484   
     length 2.14993   
     axis 0 0 0   XYZ
    dof rx ry rz
    limits (-20.0 45.0)
           (-30.0 30.0)
           (-30.0 30.0)
  end
  begin
     id 12 
     name upperback
     direction -0.000776481 0.999993 0.00352685   
     length 2.15301   
     axis 0 0 0   XYZ
    dof rx ry rz
    limits (-20.0 45.0)
           (-30.0 30.0)
           (-30.0 30.0)
  end
  begin
     id 13 
     name thorax
     direction 0.00438186 0.999609 0.0276143   
     length 2.15424   
     axis 0 0 0   XYZ
    dof rx ry rz
    limits (-20.0 45.0)
           (-30.0 30.0)
           (-30.0 30.0)
  end
  begin
     id 14 
     name lowerneck
     direction -0.0488006 0.998094 0.0377807   
     length 1.90481   
     axis 0 0 0   XYZ
    dof rx ry rz
    limits (-20.0 45.0)
           (-30.0 30.0)
           (-30.0 30.0)
  end
  begin
     id 15 
     name upperneck
     direction 0.0443769 0.990702 -0.12861   
     length 1.91305   
     axis 0 0 0   XYZ
    dof rx ry rz
    limits (-20.0 45.0)
           (-30.0 30.0)
           (-30.0 30.0)
  end
  begin
     id 16
     name head
     direction 0.0165599 0.998647 -0.0492982  
     length 1.92369  
     axis 0 0 0   XYZ
    dof rx ry rz
    limits (-20.0 45.0)
           (-30.0 30.0)
           (-30.0 30.0)
  end
  begin
     id 17 
     name lclavicle
     direction 0.911936 0.410197 -0.0105506  
     length 3.52622  
     axis 0 0 0   XYZ
    dof ry rz
    limits (-20.0 10.0)
           (0.0 20.0)
  end
  begin
     id 18 
     name lhumerus
     direction 1 -4.48974e-011 -2.48591e-028   
     length 5.47651   
     axis 180 -30 -90   XYZ
    dof rx ry rz
    limits (-60.0 90.0)
           (-90.0 90.0)
           (-90.0 90.0)
  end
  begin
     id 19
     name lradius
     direction 1 -4.48938e-011 -4.40099e-027   
     length 3.09058   
     axis 180 -30 -90   XYZ
    dof rx
    limits (-10.0 170.0)
  end
  begin
     id 20
     name lwrist
     direction 1 -4.49042e-011 -2.99852e-027   
     length 1.54529   
     axis 1.95339e-015 90 90   XYZ
    dof ry
    limits (-180.0 0.0)
 end
  begin
     id 21 
     name lhand
     direction 1 -4.48815e-011 -5.98193e-027   
     length 0.771611   
     axis 3.82337e-015 90 90   XYZ
    dof rx rz
    limits (-90.0 90.0)
           (-45.0 45.0)
  end
  begin
     id 22 
     name lfingers
     direction 1 -4.49034e-011 -1.1993e-026   
     length 0.622093   
     axis 7.64668e-015 90 90   XYZ
    dof rx
    limits (0.0 90.0)
  end
  begin
     id 23
     name lthumb
     direction 0.707107 -6.34867e-011 0.707107   
     length 0.893204   
     axis -90 45 -1.62303e-014   XYZ
    dof rx rz
    limits (-45.0 45.0)
           (-45.0 45.0)
  end
  begin
     id 24 
     name rclavicle
     direction -0.93442 0.355634 -0.0195692   
     length 3.62463  
     axis 0 0 0   XYZ 
    dof ry rz
    limits (-10.0 20.0)
           (-20.0 0.0)
  end
  begin
     id 25 
     name rhumerus
     direction -1 -4.48957e-011 -1.19147e-027  
     length 5.14182   
     axis 180 30 90   XYZ
    dof rx ry rz
    limits (-90.0 60.0)
           (-90.0 90.0)
           (-90.0 90.0)
  end
  begin
     id 26 
     name rradius
     direction -1 -4.48952e-011 -3.81062e-027   
     length 3.35565   
     axis 180 30 90   XYZ
    dof rx
    limits (-10.0 170.0)
  end
  begin
     id 27 
     name rwrist
     direction -1 -4.48973e-011 -2.99621e-027   
     length 1.67782   
     axis 1.95339e-015 -90 -90   XYZ
    dof ry
    limits (-180.0 0.0)
  end
  begin
     id 28
     name rhand
     direction -1 -4.48895e-011 -5.98727e-027   
     length 0.801042   
     axis 3.82337e-015 -90 -90   XYZ
    dof rx rz
    limits (-90.0 90.0)
           (-45.0 45.0)
  end
  begin
     id 29
     name rfingers
     direction -1 -4.49065e-011 -1.19972e-026   
     length 0.645821   
     axis 7.64668e-015 -90 -90   XYZ
    dof rx
    limits (0.0 90.0)
  end
  begin
     id 30
     name rthumb
     direction -0.707107 -6.34957e-011 0.707107   
     length 0.927273   
     axis -90 -45 1.62303e-014   XYZ
    dof rx rz
    limits (-45.0 45.0)
           (-45.0 45.0)
  end
:hierarchy
  begin
    root lhipjoint rhipjoint lowerback
    lhipjoint lfemur
    lfemur ltibia
    ltibia lfoot
    lfoot ltoes
    rhipjoint rfemur
    rfemur rtibia
    rtibia rfoot
    rfoot rtoes
    lowerback upperback
    upperback thorax
    thorax lowerneck lclavicle rclavicle
    lowerneck upperneck
    upperneck head
    lclavicle lhumerus
    lhumerus lradius
    lradius lwrist
    lwrist lhand lthumb
    lhand lfingers
    rclavicle rhumerus
    rhumerus rradius
    rradius rwrist
    rwrist rhand rthumb
    rhand rfingers
  end

#!OML:ASF E:\Style4\Style4.ASF
:FULLY-SPECIFIED
:DEGREES
446
root -0.171192 17.9403 -2.0069 3.96138 7.09463 1.09037
lowerback 12.3022 3.02047 6.75301
upperback 11.2425 4.42372 5.07612
thorax 5.1664 2.47315 1.26224
lowerneck 4.71904 -10.2631 -6.31875
upperneck -5.01391 -14.315 -2.29917
head -2.10029 -6.94451 0.73046
rclavicle 2.54444e-014 -2.22639e-014
rhumerus 38.2257 31.6863 -73.3633
rradius 90.4329
rwrist -79.8519
rhand -44.4075 31.9857
rfingers 7.12502
rthumb -17.2134 2.72811
lclavicle 2.54444e-014 -2.22639e-014
lhumerus 56.6437 -8.09941 -6.68357
lradius 89.8012
lwrist 87.4489
lhand -11.4343 46.3547
lfingers 7.12502
lthumb 14.6021 75.8206
rfemur -19.3693 -4.72916 18.6444
rtibia 29.536
rfoot -12.4594 -20.7497
rtoes -10.9504
lfemur -21.2717 -4.14959 -18.5259
ltibia 27.8302
lfoot -10.0597 9.78716
ltoes -20.3711
447
root -0.15125 17.9403 -2.00879 3.94736 6.72862 1.05287
lowerback 12.2654 2.98277 6.67382
upperback 11.2853 4.35926 5.04842
thorax 5.22627 2.43738 1.28572
lowerneck 4.68022 -10.1195 -6.40404
upperneck -5.01208 -14.123 -2.26497
head -2.08813 -6.84911 0.746925
rclavicle -1.43125e-014 -1.59028e-014
rhumerus 37.9339 31.3139 -73.679
rradius 90.497
rwrist -79.306
rhand -44.4074 31.7751
rfingers 7.12502
rthumb -17.2134 2.51749
lclavicle -1.43125e-014 -1.59028e-014
lhumerus 57.0363 -7.99506 -6.54242
lradius 89.5162
lwrist 87.2511
lhand -11.3417 45.9445
lfingers 7.12502
lthumb 14.6913 75.404
rfemur -19.3809 -4.5769 18.6174
rtibia 29.4765
rfoot -12.0184 -20.6593
rtoes -12.8511
lfemur -21.2793 -3.9286 -18.5619
ltibia 27.988
lfoot -10.1931 9.90171
ltoes -20.2346
448
root -0.133225 17.9392 -2.01047 3.92826 6.38876 0.966273
lowerback 12.2295 2.90691 6.5948
upperback 11.319 4.24446 5.06511
thorax 5.27112 2.37413 1.35831
lowerneck 4.63243 -9.93531 -6.57113
upperneck -5.01015 -13.8819 -2.2441
head -2.07113 -6.72744 0.770095
rclavicle -7.4743e-014 -2.70347e-014
rhumerus 37.6163 31.0973 -73.9273
rradius 90.6172
rwrist -78.9342
rhand -44.3924 31.3002
rfingers 7.12502
rthumb -17.1989 2.04134
lclavicle -7.4743e-014 -2.70347e-014
lhumerus 57.273 -7.94243 -6.26984
lradius 89.2256
lwrist 87.1903
lhand -11.2238 45.5577
lfingers 7.12502
lthumb 14.8049 75.0088
rfemur -19.3881 -4.38393 18.6478
rtibia 29.4097
rfoot -11.8781 -20.5206
rtoes -13.0516
lfemur -21.2772 -3.69553 -18.5391
ltibia 28.1293
lfoot -10.3046 9.99691
ltoes -20.2963
449
root -0.116744 17.9385 -2.01251 3.9224 6.07483 0.856855
lowerback 12.1647 2.8235 6.53097
upperback 11.3524 4.11946 5.03501
thorax 5.33625 2.30902 1.37586
lowerneck 4.56647 -9.71229 -6.60336
upperneck -5.0026 -13.5785 -2.22266
head -2.05987 -6.57755 0.771456
rclavicle -6.36111e-015 -1.59028e-015
rhumerus 37.2822 30.9417 -74.2946
rradius 90.7985
rwrist -78.5996
rhand -44.3146 31.0499
rfingers 7.12502
rthumb -17.124 1.78453
lclavicle -6.36111e-015 -1.59028e-015
lhumerus 57.5144 -7.94265 -6.00338
lradius 88.9277
lwrist 87.1178
lhand -10.9982 45.446
lfingers 7.12502
lthumb 15.0222 74.881
rfemur -19.4154 -4.21025 18.7157
rtibia 29.3443
rfoot -11.8122 -20.3772
rtoes -13.1891
lfemur -21.3151 -3.45899 -18.4813
ltibia 28.2731
lfoot -10.3986 10.0534
ltoes -20.2066
450
root -0.0983136 17.9389 -2.01385 3.89109 5.75626 0.82316
lowerback 12.1701 2.76912 6.48295
upperback 11.3673 4.04405 4.91986
thorax 5.35155 2.27244 1.28623
lowerneck 4.54153 -9.50968 -6.46336
upperneck -5.01204 -13.2977 -2.22902
head -2.07436 -6.43992 0.742736
rclavicle -1.27222e-014 -2.06736e-014
rhumerus 36.838 30.6625 -74.767
rradius 90.9795
rwrist -78.2463
rhand -44.3712 31.3777
rfingers 7.12502
rthumb -17.1785 2.11707
lclavicle -1.27222e-014 -2.06736e-014
lhumerus 57.9533 -8.00686 -5.76582
lradius 88.6372
lwrist 87.041
lhand -10.8571 45.5232
lfingers 7.12502
lthumb 15.1581 74.948
rfemur -19.402 -4.08503 18.6894
rtibia 29.2923
rfoot -11.7226 -20.2131
rtoes -13.4666
lfemur -21.2961 -3.30363 -18.5126
ltibia 28.4091
lfoot -10.4433 10.174
ltoes -20.5953
451
root -0.079407 17.9381 -2.01537 3.90789 5.42127 0.842604
lowerback 12.1633 2.72562 6.4013
upperback 11.3588 3.98083 4.80302
thorax 5.34478 2.23908 1.21153
lowerneck 4.50022 -9.33673 -6.39303
upperneck -4.9866 -13.0565 -2.21879
head -2.06756 -6.32271 0.727424
rclavicle -6.52014e-014 -1.59028e-014
rhumerus 36.4112 30.3587 -75.1284
rradius 91.1684
rwrist -78.0545
rhand -44.3307 31.8797
rfingers 7.12502
rthumb -17.1395 2.61566
lclavicle -6.52014e-014 -1.59028e-014
lhumerus 58.4304 -8.06461 -5.45962
lradius 88.4193
lwrist 86.9129
lhand -10.754 45.4434
lfingers 7.12502
lthumb 15.2574 74.8608
rfemur -19.4553 -3.96188 18.6045
rtibia 29.2718
rfoot -11.6362 -20.0439
rtoes -13.7935
lfemur -21.3261 -3.13343 -18.6046
ltibia 28.5351
lfoot -10.4469 10.3429
ltoes -21.334
